<mxfile host="app.diagrams.net" modified="2022-01-12T21:59:47.065Z" agent="5.0 (X11; Linux x86_64) AppleWebKit/537.36 (KHTML, like Gecko) Chrome/97.0.4692.71 Safari/537.36" etag="-3vYzdf9Qrzlz7lINy5v" version="16.2.4" type="github">
  <diagram id="EiqaVIw0Xq5smAEMS3WH" name="Page-1">
    <mxGraphModel dx="1422" dy="772" grid="1" gridSize="10" guides="1" tooltips="1" connect="1" arrows="1" fold="1" page="1" pageScale="1" pageWidth="850" pageHeight="1100" math="0" shadow="0">
      <root>
        <mxCell id="0" />
        <mxCell id="1" parent="0" />
        <mxCell id="8dXnkB4uLVbHSzQZJCSs-1" value="Sacar" style="shape=umlFrame;whiteSpace=wrap;html=1;width=150;height=30;" vertex="1" parent="1">
          <mxGeometry x="30" y="280" width="790" height="480" as="geometry" />
        </mxCell>
        <mxCell id="8dXnkB4uLVbHSzQZJCSs-2" value="" style="ellipse;html=1;shape=startState;fillColor=#000000;strokeColor=#ff0000;" vertex="1" parent="1">
          <mxGeometry x="60" y="340" width="30" height="30" as="geometry" />
        </mxCell>
        <mxCell id="8dXnkB4uLVbHSzQZJCSs-3" value="" style="edgeStyle=orthogonalEdgeStyle;html=1;verticalAlign=bottom;endArrow=open;endSize=8;strokeColor=#ff0000;rounded=0;entryX=0;entryY=0.5;entryDx=0;entryDy=0;" edge="1" source="8dXnkB4uLVbHSzQZJCSs-2" parent="1" target="8dXnkB4uLVbHSzQZJCSs-4">
          <mxGeometry relative="1" as="geometry">
            <mxPoint x="75" y="430" as="targetPoint" />
          </mxGeometry>
        </mxCell>
        <mxCell id="8dXnkB4uLVbHSzQZJCSs-7" style="edgeStyle=orthogonalEdgeStyle;rounded=0;orthogonalLoop=1;jettySize=auto;html=1;" edge="1" parent="1" source="8dXnkB4uLVbHSzQZJCSs-4" target="8dXnkB4uLVbHSzQZJCSs-5">
          <mxGeometry relative="1" as="geometry" />
        </mxCell>
        <mxCell id="8dXnkB4uLVbHSzQZJCSs-8" value="Acesso Concedido" style="edgeLabel;html=1;align=center;verticalAlign=middle;resizable=0;points=[];" vertex="1" connectable="0" parent="8dXnkB4uLVbHSzQZJCSs-7">
          <mxGeometry x="0.2" relative="1" as="geometry">
            <mxPoint as="offset" />
          </mxGeometry>
        </mxCell>
        <mxCell id="8dXnkB4uLVbHSzQZJCSs-4" value="Acessando conta" style="ellipse;whiteSpace=wrap;html=1;" vertex="1" parent="1">
          <mxGeometry x="160" y="315" width="120" height="80" as="geometry" />
        </mxCell>
        <mxCell id="8dXnkB4uLVbHSzQZJCSs-9" style="edgeStyle=orthogonalEdgeStyle;rounded=0;orthogonalLoop=1;jettySize=auto;html=1;entryX=0.5;entryY=0;entryDx=0;entryDy=0;" edge="1" parent="1" source="8dXnkB4uLVbHSzQZJCSs-5" target="8dXnkB4uLVbHSzQZJCSs-6">
          <mxGeometry relative="1" as="geometry" />
        </mxCell>
        <mxCell id="8dXnkB4uLVbHSzQZJCSs-10" value="Valor Informado" style="edgeLabel;html=1;align=center;verticalAlign=middle;resizable=0;points=[];" vertex="1" connectable="0" parent="8dXnkB4uLVbHSzQZJCSs-9">
          <mxGeometry x="-0.0537" y="-2" relative="1" as="geometry">
            <mxPoint as="offset" />
          </mxGeometry>
        </mxCell>
        <mxCell id="8dXnkB4uLVbHSzQZJCSs-5" value="Solicitando Saque" style="ellipse;whiteSpace=wrap;html=1;" vertex="1" parent="1">
          <mxGeometry x="430" y="315" width="120" height="80" as="geometry" />
        </mxCell>
        <mxCell id="8dXnkB4uLVbHSzQZJCSs-12" style="edgeStyle=orthogonalEdgeStyle;rounded=0;orthogonalLoop=1;jettySize=auto;html=1;entryX=0.5;entryY=0;entryDx=0;entryDy=0;" edge="1" parent="1" source="8dXnkB4uLVbHSzQZJCSs-6" target="8dXnkB4uLVbHSzQZJCSs-11">
          <mxGeometry relative="1" as="geometry" />
        </mxCell>
        <mxCell id="8dXnkB4uLVbHSzQZJCSs-13" value="Saque aprovado" style="edgeLabel;html=1;align=center;verticalAlign=middle;resizable=0;points=[];" vertex="1" connectable="0" parent="8dXnkB4uLVbHSzQZJCSs-12">
          <mxGeometry x="-0.25" y="5" relative="1" as="geometry">
            <mxPoint as="offset" />
          </mxGeometry>
        </mxCell>
        <mxCell id="8dXnkB4uLVbHSzQZJCSs-6" value="Verificando saldo" style="ellipse;whiteSpace=wrap;html=1;" vertex="1" parent="1">
          <mxGeometry x="620" y="430" width="120" height="80" as="geometry" />
        </mxCell>
        <mxCell id="8dXnkB4uLVbHSzQZJCSs-15" style="edgeStyle=orthogonalEdgeStyle;rounded=0;orthogonalLoop=1;jettySize=auto;html=1;entryX=1;entryY=0.5;entryDx=0;entryDy=0;" edge="1" parent="1" source="8dXnkB4uLVbHSzQZJCSs-11" target="8dXnkB4uLVbHSzQZJCSs-14">
          <mxGeometry relative="1" as="geometry" />
        </mxCell>
        <mxCell id="8dXnkB4uLVbHSzQZJCSs-11" value="Emitindo notas" style="ellipse;whiteSpace=wrap;html=1;" vertex="1" parent="1">
          <mxGeometry x="620" y="630" width="120" height="80" as="geometry" />
        </mxCell>
        <mxCell id="8dXnkB4uLVbHSzQZJCSs-14" value="" style="ellipse;html=1;shape=endState;fillColor=#000000;strokeColor=#ff0000;" vertex="1" parent="1">
          <mxGeometry x="490" y="655" width="30" height="30" as="geometry" />
        </mxCell>
      </root>
    </mxGraphModel>
  </diagram>
</mxfile>
